<mxfile host="app.diagrams.net" modified="2021-03-12T20:20:06.117Z" agent="5.0 (Windows NT 10.0; Win64; x64) AppleWebKit/537.36 (KHTML, like Gecko) Chrome/89.0.4389.72 Safari/537.36 Edg/89.0.774.45" etag="MWsG7TYveDWu2MD0g_LR" version="14.4.8" type="github">
  <diagram id="rgr_ggMDqa0CBYAi4XXZ" name="Page-1">
    <mxGraphModel dx="1185" dy="662" grid="0" gridSize="10" guides="1" tooltips="1" connect="1" arrows="1" fold="1" page="1" pageScale="1" pageWidth="827" pageHeight="1169" math="0" shadow="0">
      <root>
        <mxCell id="0" />
        <mxCell id="1" parent="0" />
        <mxCell id="A-BF0UujvZgVLAS8JFkz-48" value="" style="rounded=0;whiteSpace=wrap;html=1;dashed=1;" vertex="1" parent="1">
          <mxGeometry x="648" y="391" width="91" height="322" as="geometry" />
        </mxCell>
        <mxCell id="A-BF0UujvZgVLAS8JFkz-47" value="" style="rounded=0;whiteSpace=wrap;html=1;dashed=1;" vertex="1" parent="1">
          <mxGeometry x="71" y="307" width="495" height="308" as="geometry" />
        </mxCell>
        <mxCell id="6oglmZXDybSKQYADPyGO-2" value="" style="rounded=0;whiteSpace=wrap;html=1;" parent="1" vertex="1">
          <mxGeometry x="313" y="433" width="90" height="60" as="geometry" />
        </mxCell>
        <mxCell id="6oglmZXDybSKQYADPyGO-3" value="Сервопривод" style="text;html=1;strokeColor=none;fillColor=none;align=center;verticalAlign=middle;whiteSpace=wrap;rounded=0;" parent="1" vertex="1">
          <mxGeometry x="313" y="433" width="90" height="60" as="geometry" />
        </mxCell>
        <mxCell id="6oglmZXDybSKQYADPyGO-6" value="" style="rounded=0;whiteSpace=wrap;html=1;" parent="1" vertex="1">
          <mxGeometry x="403" y="533" width="90" height="60" as="geometry" />
        </mxCell>
        <mxCell id="A-BF0UujvZgVLAS8JFkz-56" style="edgeStyle=orthogonalEdgeStyle;rounded=0;orthogonalLoop=1;jettySize=auto;html=1;entryX=0.5;entryY=1;entryDx=0;entryDy=0;" edge="1" parent="1" source="6oglmZXDybSKQYADPyGO-10" target="A-BF0UujvZgVLAS8JFkz-53">
          <mxGeometry relative="1" as="geometry">
            <Array as="points">
              <mxPoint x="403" y="511" />
              <mxPoint x="250" y="511" />
            </Array>
          </mxGeometry>
        </mxCell>
        <mxCell id="6oglmZXDybSKQYADPyGO-10" value="Arduino" style="text;html=1;strokeColor=none;fillColor=none;align=center;verticalAlign=middle;whiteSpace=wrap;rounded=0;" parent="1" vertex="1">
          <mxGeometry x="403" y="533" width="90" height="60" as="geometry" />
        </mxCell>
        <mxCell id="6oglmZXDybSKQYADPyGO-12" value="" style="rounded=0;whiteSpace=wrap;html=1;" parent="1" vertex="1">
          <mxGeometry x="243" y="533" width="90" height="60" as="geometry" />
        </mxCell>
        <mxCell id="6oglmZXDybSKQYADPyGO-14" value="Драйвер шагового мотора" style="text;html=1;strokeColor=none;fillColor=none;align=center;verticalAlign=middle;whiteSpace=wrap;rounded=0;" parent="1" vertex="1">
          <mxGeometry x="243" y="533" width="90" height="60" as="geometry" />
        </mxCell>
        <mxCell id="6oglmZXDybSKQYADPyGO-21" value="" style="endArrow=classic;startArrow=classic;html=1;exitX=1;exitY=0.5;exitDx=0;exitDy=0;entryX=0.5;entryY=0;entryDx=0;entryDy=0;" parent="1" target="6oglmZXDybSKQYADPyGO-10" edge="1">
          <mxGeometry width="50" height="50" relative="1" as="geometry">
            <mxPoint x="403" y="463" as="sourcePoint" />
            <mxPoint x="243" y="613" as="targetPoint" />
            <Array as="points">
              <mxPoint x="448" y="463" />
            </Array>
          </mxGeometry>
        </mxCell>
        <mxCell id="6oglmZXDybSKQYADPyGO-23" value="" style="rounded=0;whiteSpace=wrap;html=1;" parent="1" vertex="1">
          <mxGeometry x="83" y="533" width="90" height="60" as="geometry" />
        </mxCell>
        <mxCell id="6oglmZXDybSKQYADPyGO-25" value="Шаговый мотор" style="text;html=1;strokeColor=none;fillColor=none;align=center;verticalAlign=middle;whiteSpace=wrap;rounded=0;" parent="1" vertex="1">
          <mxGeometry x="83" y="533" width="90" height="60" as="geometry" />
        </mxCell>
        <mxCell id="A-BF0UujvZgVLAS8JFkz-1" value="" style="rounded=0;whiteSpace=wrap;html=1;" vertex="1" parent="1">
          <mxGeometry x="477" y="312" width="90" height="60" as="geometry" />
        </mxCell>
        <mxCell id="A-BF0UujvZgVLAS8JFkz-2" value="Камера" style="text;html=1;strokeColor=none;fillColor=none;align=center;verticalAlign=middle;whiteSpace=wrap;rounded=0;" vertex="1" parent="1">
          <mxGeometry x="477" y="312" width="90" height="60" as="geometry" />
        </mxCell>
        <mxCell id="A-BF0UujvZgVLAS8JFkz-41" style="edgeStyle=orthogonalEdgeStyle;rounded=0;orthogonalLoop=1;jettySize=auto;html=1;entryX=1;entryY=0;entryDx=0;entryDy=0;" edge="1" parent="1" source="A-BF0UujvZgVLAS8JFkz-3" target="6oglmZXDybSKQYADPyGO-10">
          <mxGeometry relative="1" as="geometry">
            <Array as="points">
              <mxPoint x="493" y="376" />
            </Array>
          </mxGeometry>
        </mxCell>
        <mxCell id="A-BF0UujvZgVLAS8JFkz-57" style="edgeStyle=orthogonalEdgeStyle;rounded=0;orthogonalLoop=1;jettySize=auto;html=1;entryX=0.5;entryY=0;entryDx=0;entryDy=0;" edge="1" parent="1" source="A-BF0UujvZgVLAS8JFkz-3" target="A-BF0UujvZgVLAS8JFkz-53">
          <mxGeometry relative="1" as="geometry" />
        </mxCell>
        <mxCell id="A-BF0UujvZgVLAS8JFkz-3" value="Аккумулятор гир-бокса" style="rounded=0;whiteSpace=wrap;html=1;" vertex="1" parent="1">
          <mxGeometry x="203" y="342" width="90" height="60" as="geometry" />
        </mxCell>
        <mxCell id="A-BF0UujvZgVLAS8JFkz-10" value="" style="endArrow=classic;startArrow=classic;html=1;exitX=1;exitY=0.5;exitDx=0;exitDy=0;" edge="1" parent="1" source="6oglmZXDybSKQYADPyGO-10" target="A-BF0UujvZgVLAS8JFkz-11">
          <mxGeometry width="50" height="50" relative="1" as="geometry">
            <mxPoint x="323" y="573" as="sourcePoint" />
            <mxPoint x="553" y="563" as="targetPoint" />
          </mxGeometry>
        </mxCell>
        <mxCell id="A-BF0UujvZgVLAS8JFkz-70" value="USB" style="edgeLabel;html=1;align=center;verticalAlign=middle;resizable=0;points=[];" vertex="1" connectable="0" parent="A-BF0UujvZgVLAS8JFkz-10">
          <mxGeometry x="0.2224" y="-2" relative="1" as="geometry">
            <mxPoint as="offset" />
          </mxGeometry>
        </mxCell>
        <mxCell id="A-BF0UujvZgVLAS8JFkz-11" value="Компьютер (например RPI)" style="rounded=0;whiteSpace=wrap;html=1;" vertex="1" parent="1">
          <mxGeometry x="649" y="534.5" width="90" height="60" as="geometry" />
        </mxCell>
        <mxCell id="A-BF0UujvZgVLAS8JFkz-27" value="" style="rounded=0;whiteSpace=wrap;html=1;" vertex="1" parent="1">
          <mxGeometry x="649" y="424.5" width="90" height="60" as="geometry" />
        </mxCell>
        <mxCell id="A-BF0UujvZgVLAS8JFkz-28" value="" style="pointerEvents=1;shadow=0;dashed=0;html=1;strokeColor=none;fillColor=#434445;aspect=fixed;labelPosition=center;verticalLabelPosition=bottom;verticalAlign=top;align=center;outlineConnect=0;shape=mxgraph.vvd.wi_fi;direction=south;" vertex="1" parent="1">
          <mxGeometry x="564" y="372" width="30" height="30" as="geometry" />
        </mxCell>
        <mxCell id="A-BF0UujvZgVLAS8JFkz-29" value="" style="pointerEvents=1;shadow=0;dashed=0;html=1;strokeColor=none;fillColor=#434445;aspect=fixed;labelPosition=center;verticalLabelPosition=bottom;verticalAlign=top;align=center;outlineConnect=0;shape=mxgraph.vvd.wi_fi;direction=north;" vertex="1" parent="1">
          <mxGeometry x="619" y="423" width="30" height="30" as="geometry" />
        </mxCell>
        <mxCell id="A-BF0UujvZgVLAS8JFkz-38" style="edgeStyle=orthogonalEdgeStyle;rounded=0;orthogonalLoop=1;jettySize=auto;html=1;" edge="1" parent="1" source="A-BF0UujvZgVLAS8JFkz-30" target="A-BF0UujvZgVLAS8JFkz-11">
          <mxGeometry relative="1" as="geometry" />
        </mxCell>
        <mxCell id="A-BF0UujvZgVLAS8JFkz-30" value="FPV Приёмник" style="text;html=1;strokeColor=none;fillColor=none;align=center;verticalAlign=middle;whiteSpace=wrap;rounded=0;" vertex="1" parent="1">
          <mxGeometry x="649" y="424.5" width="90" height="60" as="geometry" />
        </mxCell>
        <mxCell id="A-BF0UujvZgVLAS8JFkz-32" value="" style="endArrow=classic;html=1;exitX=0;exitY=0.5;exitDx=0;exitDy=0;entryX=1;entryY=0.5;entryDx=0;entryDy=0;" edge="1" parent="1" source="6oglmZXDybSKQYADPyGO-10" target="6oglmZXDybSKQYADPyGO-14">
          <mxGeometry width="50" height="50" relative="1" as="geometry">
            <mxPoint x="527" y="618" as="sourcePoint" />
            <mxPoint x="577" y="568" as="targetPoint" />
          </mxGeometry>
        </mxCell>
        <mxCell id="A-BF0UujvZgVLAS8JFkz-34" value="" style="endArrow=classic;html=1;exitX=0;exitY=0.5;exitDx=0;exitDy=0;entryX=1;entryY=0.5;entryDx=0;entryDy=0;" edge="1" parent="1" source="6oglmZXDybSKQYADPyGO-14" target="6oglmZXDybSKQYADPyGO-25">
          <mxGeometry width="50" height="50" relative="1" as="geometry">
            <mxPoint x="413" y="573" as="sourcePoint" />
            <mxPoint x="343" y="573" as="targetPoint" />
          </mxGeometry>
        </mxCell>
        <mxCell id="A-BF0UujvZgVLAS8JFkz-45" style="edgeStyle=orthogonalEdgeStyle;rounded=0;orthogonalLoop=1;jettySize=auto;html=1;entryX=0.5;entryY=1;entryDx=0;entryDy=0;" edge="1" parent="1" source="A-BF0UujvZgVLAS8JFkz-44" target="A-BF0UujvZgVLAS8JFkz-11">
          <mxGeometry relative="1" as="geometry" />
        </mxCell>
        <mxCell id="A-BF0UujvZgVLAS8JFkz-44" value="Питание компьютера" style="rounded=0;whiteSpace=wrap;html=1;" vertex="1" parent="1">
          <mxGeometry x="649" y="645" width="90" height="60" as="geometry" />
        </mxCell>
        <mxCell id="A-BF0UujvZgVLAS8JFkz-50" value="&lt;b&gt;&lt;font face=&quot;Comic Sans MS&quot; style=&quot;font-size: 16px&quot;&gt;Турель&lt;/font&gt;&lt;/b&gt;" style="text;html=1;strokeColor=none;fillColor=none;align=center;verticalAlign=middle;whiteSpace=wrap;rounded=0;dashed=1;" vertex="1" parent="1">
          <mxGeometry x="201" y="282" width="145" height="20" as="geometry" />
        </mxCell>
        <mxCell id="A-BF0UujvZgVLAS8JFkz-52" value="Мотор для выстрела" style="rounded=0;whiteSpace=wrap;html=1;" vertex="1" parent="1">
          <mxGeometry x="83" y="433" width="90" height="60" as="geometry" />
        </mxCell>
        <mxCell id="A-BF0UujvZgVLAS8JFkz-55" style="edgeStyle=orthogonalEdgeStyle;rounded=0;orthogonalLoop=1;jettySize=auto;html=1;" edge="1" parent="1" source="A-BF0UujvZgVLAS8JFkz-53" target="A-BF0UujvZgVLAS8JFkz-52">
          <mxGeometry relative="1" as="geometry" />
        </mxCell>
        <mxCell id="A-BF0UujvZgVLAS8JFkz-53" value="Реле" style="rounded=0;whiteSpace=wrap;html=1;" vertex="1" parent="1">
          <mxGeometry x="205" y="433" width="90" height="60" as="geometry" />
        </mxCell>
        <mxCell id="A-BF0UujvZgVLAS8JFkz-69" style="edgeStyle=orthogonalEdgeStyle;rounded=0;orthogonalLoop=1;jettySize=auto;html=1;entryX=0;entryY=0.5;entryDx=0;entryDy=0;" edge="1" parent="1" source="A-BF0UujvZgVLAS8JFkz-68" target="A-BF0UujvZgVLAS8JFkz-2">
          <mxGeometry relative="1" as="geometry" />
        </mxCell>
        <mxCell id="A-BF0UujvZgVLAS8JFkz-68" value="Аккумулятор камеры" style="rounded=0;whiteSpace=wrap;html=1;" vertex="1" parent="1">
          <mxGeometry x="358" y="312" width="90" height="60" as="geometry" />
        </mxCell>
        <mxCell id="A-BF0UujvZgVLAS8JFkz-72" value="&lt;b&gt;&lt;font face=&quot;Comic Sans MS&quot; style=&quot;font-size: 16px&quot;&gt;Система управления&lt;/font&gt;&lt;/b&gt;" style="text;html=1;strokeColor=none;fillColor=none;align=center;verticalAlign=middle;whiteSpace=wrap;rounded=0;dashed=1;" vertex="1" parent="1">
          <mxGeometry x="599" y="368" width="184" height="20" as="geometry" />
        </mxCell>
      </root>
    </mxGraphModel>
  </diagram>
</mxfile>
